<?xml version="1.0" standalone="no"?>
<!DOCTYPE svg PUBLIC "-//W3C//DTD SVG 20010904//EN"
 "http://www.w3.org/TR/2001/REC-SVG-20010904/DTD/svg10.dtd">
<svg version="1.0" xmlns="http://www.w3.org/2000/svg"
 width="512.000000pt" height="512.000000pt" viewBox="0 0 512.000000 512.000000"
 preserveAspectRatio="xMidYMid meet">
<metadata>
Created by potrace 1.11, written by Peter Selinger 2001-2013
</metadata>
<g transform="translate(0.000000,512.000000) scale(0.100000,-0.100000)"
fill="#000000" stroke="none">
<path d="M0 2560 l0 -1920 2560 0 2560 0 0 1920 0 1920 -2560 0 -2560 0 0
-1920z m1730 997 c8 -2 38 -7 65 -11 63 -10 241 -54 263 -65 9 -5 48 -21 86
-37 62 -25 197 -102 256 -146 31 -23 35 -15 -207 -390 l-62 -98 -68 44 c-103
66 -241 127 -348 155 -145 38 -355 33 -422 -9 -28 -18 -38 -68 -18 -90 9 -10
38 -25 66 -34 61 -19 345 -88 376 -90 12 -1 25 -5 29 -9 4 -4 15 -7 25 -7 9 0
65 -16 124 -35 339 -110 487 -282 487 -565 -1 -146 -37 -277 -106 -380 -31
-47 -108 -126 -160 -165 -74 -54 -233 -123 -323 -140 -15 -2 -39 -7 -53 -10
-77 -17 -184 -23 -340 -19 -96 2 -186 6 -200 8 -14 3 -45 8 -70 11 -54 8 -73
11 -122 24 -21 5 -38 7 -38 4 0 -2 -6 -1 -12 4 -7 4 -19 8 -26 9 -48 8 -231
75 -307 113 -85 42 -182 104 -197 125 -9 13 -1 32 49 109 23 37 43 70 43 72 0
5 92 157 100 165 6 6 31 50 57 98 9 17 21 32 25 32 5 0 35 -17 66 -38 105 -71
353 -172 430 -175 6 0 12 -4 12 -9 0 -5 4 -7 8 -4 4 3 26 0 48 -5 68 -17 244
-18 297 -2 91 28 99 121 13 157 -30 12 -124 37 -156 41 -8 1 -22 5 -30 8 -8 3
-28 8 -45 11 -28 5 -76 14 -100 20 -29 8 -67 17 -130 31 -96 23 -258 81 -330
119 -130 68 -230 193 -258 322 -16 72 -16 79 -17 157 -2 299 177 525 508 641
56 20 183 47 252 53 30 3 57 7 59 9 5 5 381 -3 401 -9z m2090 -31 c211 -41
323 -88 442 -181 65 -50 151 -151 187 -217 53 -97 104 -242 118 -333 2 -16 8
-57 14 -90 21 -139 0 -451 -41 -600 -42 -151 -153 -328 -266 -421 -46 -38
-167 -114 -182 -114 -4 0 -19 -6 -34 -14 -25 -13 -141 -43 -253 -65 -30 -6
-282 -9 -625 -8 l-575 2 -1 1020 c-1 561 1 1024 3 1028 6 10 1162 3 1213 -7z"/>
<path d="M3330 2509 l0 -511 153 4 c146 4 154 5 206 33 116 63 156 188 155
480 0 143 -6 214 -23 273 -5 17 -7 32 -5 32 3 0 -9 27 -26 59 -58 109 -136
141 -337 141 l-123 0 0 -511z"/>
</g>
</svg>
