<svg viewBox="0 0 360 730" xmlns="http://www.w3.org/2000/svg">
	<path d="m40 728.5c-21.23 0-38.5-17.27-38.5-38.5v-650c0-21.23 17.27-38.5 38.5-38.5h280c21.23 0 38.5 17.27 38.5 38.5v650c0 21.23-17.27 38.5-38.5 38.5z" fill="#fff"/>
	<path d="m320 3c20.4 0 37 16.6 37 37v650c0 20.4-16.6 37-37 37h-280c-20.4 0-37-16.6-37-37v-650c0-20.4 16.6-37 37-37zm0-3h-280c-22.09 0-40 17.91-40 40v650c0 22.09 17.91 40 40 40h280c22.09 0 40-17.91 40-40v-650c0-22.09-17.91-40-40-40z" fill="#808080"/>
	<circle cx="180" cy="685" fill="#fff" r="23.5"/>
	<path d="m180 663c12.13 0 22 9.87 22 22s-9.87 22-22 22-22-9.87-22-22 9.87-22 22-22m0-3c-13.81 0-25 11.19-25 25s11.19 25 25 25 25-11.19 25-25-11.19-25-25-25z" fill="#808080"/>
	<path d="m21.5 77.5h317v565h-317z" fill="#fff"/>
	<g fill="#808080">
		<path d="m337 79v562h-314v-562zm3-3h-320v568h320z"/>
		<path d="m200 48c1.1 0 2 .9 2 2s-.9 2-2 2h-40c-1.1 0-2-.9-2-2s.9-2 2-2zm0-3h-40c-2.76 0-5 2.24-5 5s2.24 5 5 5h40c2.76 0 5-2.24 5-5s-2.24-5-5-5z"/>
	</g>
</svg>