<svg viewBox="0 0 700 414" xmlns="http://www.w3.org/2000/svg">
	<path d="m51.5 388.5v-378.5c0-4.69 3.81-8.5 8.5-8.5h580c4.69 0 8.5 3.81 8.5 8.5v378.5z" fill="#fff"/>
	<path d="m640 3c3.86 0 7 3.14 7 7v377h-594v-377c0-3.86 3.14-7 7-7zm0-3h-580c-5.52 0-10 4.48-10 10v380h600v-380c0-5.52-4.48-10-10-10z" fill="#808080"/>
	<path d="m10 412.5c-4.69 0-8.5-3.81-8.5-8.5v-15.5h697v15.5c0 4.69-3.81 8.5-8.5 8.5z" fill="#fff"/>
	<path d="m697 390v14c0 3.86-3.14 7-7 7h-680c-3.86 0-7-3.14-7-7v-14zm3-3h-700v17c0 5.52 4.48 10 10 10h680c5.52 0 10-4.48 10-10z" fill="#808080"/>
	<path d="m310 401c-4.69 0-8.5-3.81-8.5-8.5v-3.5h97v3.5c0 4.69-3.81 8.5-8.5 8.5z" fill="#fff"/>
	<path d="m397 390.5v2c0 3.86-3.14 7-7 7h-80c-3.86 0-7-3.14-7-7v-2zm3-3h-100v5c0 5.52 4.48 10 10 10h80c5.52 0 10-4.48 10-10z" fill="#808080"/>
	<path d="m71.5 21.5h557v347h-557z" fill="#fff"/>
	<path d="m627 23v344h-554v-344zm3-3h-560v350h560z" fill="#808080"/>
</svg>