<svg class="sd-svg" viewBox="0 0 730 450" xmlns="http://www.w3.org/2000/svg">
	<path d="m20 448.5c-10.2 0-18.5-8.3-18.5-18.5v-410c0-10.2 8.3-18.5 18.5-18.5h690c10.2 0 18.5 8.3 18.5 18.5v410c0 10.2-8.3 18.5-18.5 18.5z" fill="#fff"/>
	<path d="m710 3c9.37 0 17 7.63 17 17v410c0 9.37-7.63 17-17 17h-690c-9.37 0-17-7.63-17-17v-410c0-9.37 7.63-17 17-17zm0-3h-690c-11.05 0-20 8.95-20 20v410c0 11.05 8.95 20 20 20h690c11.05 0 20-8.95 20-20v-410c0-11.05-8.95-20-20-20z" fill="#808080"/>
	<path d="m355.03 414.74 7.87-1.07v7.59l-7.87.04zm7.87 8.07.01 7.6-7.87-1.08v-6.57zm1.63-9.29 10.44-1.52v9.16l-10.44.08zm10.44 9.36v9.12l-10.44-1.47-.01-7.66z" fill="#808184"/>
</svg>
