<svg viewBox="0 0 400 730" xmlns="http://www.w3.org/2000/svg">
	<path d="m1.5 1.5h397v727h-397z" fill="#fff"/>
	<path d="m397 3v724h-394v-724zm3-3h-400v730h400z" fill="#808080"/>
	<path d="m35 713.5c-10.2 0-18.5-8.3-18.5-18.5v-660c0-10.2 8.3-18.5 18.5-18.5h330c10.2 0 18.5 8.3 18.5 18.5v660c0 10.2-8.3 18.5-18.5 18.5z" fill="#fff"/>
	<path d="m365 18c9.37 0 17 7.63 17 17v660c0 9.37-7.63 17-17 17h-330c-9.37 0-17-7.63-17-17v-660c0-9.37 7.63-17 17-17zm0-3h-330c-11.05 0-20 8.95-20 20v660c0 11.05 8.95 20 20 20h330c11.05 0 20-8.95 20-20v-660c0-11.05-8.95-20-20-20z" fill="#808080"/>
	<g fill="#808080">
		<path d="m330.07 630.14c-3.28 0-5.93 2.66-5.93 5.93 0 1.4.49 2.68 1.3 3.7l-3.44 3.62 1.28 1.28 3.66-3.57c.91.57 1.98.9 3.13.9 3.28 0 5.93-2.65 5.93-5.93 0-3.27-2.66-5.93-5.93-5.93zm-.09 10.15c-2.24 0-4.05-1.81-4.05-4.05 0-2.23 1.82-4.05 4.05-4.05s4.05 1.82 4.05 4.05c0 2.24-1.82 4.05-4.05 4.05z"/>
		<path d="m190.03 630.74 7.87-1.07v7.59l-7.87.04zm7.87 8.07.01 7.6-7.87-1.08v-6.57zm1.63-9.29 10.44-1.52v9.16l-10.44.08zm10.44 9.36v9.12l-10.44-1.47-.01-7.66z"/>
		<path d="m78 636.13h-10.39l5.93-6.05h-2.68l-6.86 7.02 6.97 7.2h2.57l-6.1-6.23h10.56z"/>
	</g>
	<path d="m222.5 36c1.1 0 2 .9 2 2s-.9 2-2 2h-45c-1.1 0-2-.9-2-2s.9-2 2-2zm0-3h-45c-2.76 0-5 2.24-5 5s2.24 5 5 5h45c2.76 0 5-2.24 5-5s-2.24-5-5-5z" fill="#808080"/>
</svg>
