<?xml version="1.0" encoding="utf-8"?>
<!-- Generator: Adobe Illustrator 24.3.0, SVG Export Plug-In . SVG Version: 6.00 Build 0)  -->
<svg version="1.1" id="sd-bezel-phone" xmlns="http://www.w3.org/2000/svg" xmlns:xlink="http://www.w3.org/1999/xlink" x="0px"
	 y="0px" viewBox="0 0 355 730" enable-background="new 0 0 355 730" xml:space="preserve">
<path fill="#FFFFFF" d="M320.5,1.5h-286c-18.2,0-33,14.8-33,33v661c0,18.2,14.8,33,33,33h286c18.2,0,33-14.8,33-33v-661
	C353.5,16.3,338.7,1.5,320.5,1.5z M40,712c-13.8,0-22-8.2-22-22V40c0-13.8,8.2-22,22-22h47c2.2,0,4.5,2.1,4.7,4.6
	c0.2,2,0.8,8.4,0.8,8.4c1.1,8.5,7.7,15,16,15h138c8.3,0,14.9-6.5,16-15c0,0,0.6-6.4,0.8-8.4c0.2-2.5,2.5-4.6,4.7-4.6
	c11.8,0,47,0,47,0c13.8,0,22,8.2,22,22v650c0,13.8-8.2,22-22,22H40z"/>
<path fill="#808080" d="M320,3c17.6,0,32,14.4,32,32v660c0,17.7-14.3,32-32,32H35c-17.7,0-32-14.3-32-32V35C3,17.3,17.3,3,35,3H320
	 M320,0H35C15.7,0,0,15.7,0,35v660c0,19.3,15.7,35,35,35h285c19.3,0,35-15.7,35-35V35C355,15.7,339.3,0,320,0L320,0z"/>
<path fill="#808080" d="M193.5,26c0.6,0,1,0.4,1,1s-0.4,1-1,1h-32c-0.6,0-1-0.4-1-1s0.4-1,1-1H193.5 M193.5,23h-32c-2.2,0-4,1.8-4,4
	s1.8,4,4,4h32c2.2,0,4-1.8,4-4S195.7,23,193.5,23L193.5,23z"/>
<path fill="#808080" d="M214.5,24c1.7,0,3,1.3,3,3s-1.3,3-3,3s-3-1.3-3-3S212.8,24,214.5,24 M214.5,21c-3.3,0-6,2.7-6,6s2.7,6,6,6
	s6-2.7,6-6S217.8,21,214.5,21L214.5,21z"/>
</svg>
