<?xml version="1.0" encoding="utf-8"?>
<!-- Generator: Adobe Illustrator 24.2.1, SVG Export Plug-In . SVG Version: 6.00 Build 0)  -->
<svg version="1.1" id="Layer_1" xmlns="http://www.w3.org/2000/svg" xmlns:xlink="http://www.w3.org/1999/xlink" x="0px" y="0px"
	 viewBox="0 0 500 364" enable-background="new 0 0 500 364" xml:space="preserve">
<path d="M380.8,0c27.2,0,49.7,6.2,67.3,18.8c17.7,12.5,30.7,28.9,39.2,49.1c8.5,20.2,12.7,42.8,12.7,67.8c0,33.1-7.2,64.9-21.5,95.4
	c-14.3,30.5-33.1,57.4-56.3,80.5c-23.2,23.2-48.4,40.6-75.6,52.4l-76.2-56.3c20.6-8.1,39.6-18.4,56.8-30.9
	c17.3-12.5,32.4-26.1,45.3-40.8c12.9-14.7,22.6-29.8,29.3-45.2l-5.5-3.3c-3.7,2.9-8.5,5.1-14.3,6.6c-5.9,1.5-13.6,2.2-23.2,2.2
	c-13.2,0-26.7-3.3-40.3-9.9c-13.6-6.6-25-16.5-34.2-29.8c-9.2-13.2-13.8-30.2-13.8-50.7c0-23.5,5.2-43,15.5-58.5
	c10.3-15.4,23.9-27.2,40.8-35.3C343.6,4,361.7,0,380.8,0z M110.4,0c27.2,0,49.7,6.2,67.3,18.8c17.7,12.5,30.7,28.9,39.2,49.1
	c8.5,20.2,12.7,42.8,12.7,67.8c0,33.1-7.2,64.9-21.5,95.4c-14.3,30.5-33.1,57.4-56.3,80.5c-23.2,23.2-48.4,40.6-75.6,52.4L0,307.7
	c20.6-8.1,39.6-18.4,56.8-30.9c17.3-12.5,32.4-26.1,45.2-40.8c12.9-14.7,22.6-29.8,29.3-45.2l-5.5-3.3c-3.7,2.9-8.5,5.1-14.3,6.6
	c-5.9,1.5-13.6,2.2-23.2,2.2c-13.2,0-26.7-3.3-40.3-9.9c-13.6-6.6-25-16.5-34.2-29.8C4.6,143.4,0,126.5,0,105.9
	c0-23.5,5.2-43,15.4-58.5C25.8,32,39.4,20.2,56.3,12.1C73.2,4,91.2,0,110.4,0z"/>
</svg>
