<?xml version="1.0" encoding="utf-8"?>
<!-- Generator: Adobe Illustrator 24.2.1, SVG Export Plug-In . SVG Version: 6.00 Build 0)  -->
<svg version="1.1" id="Layer_1" xmlns="http://www.w3.org/2000/svg" xmlns:xlink="http://www.w3.org/1999/xlink" x="0px" y="0px"
	 viewBox="0 0 500 364" enable-background="new 0 0 500 364" xml:space="preserve">
<path d="M119.2,364c-27.2,0-49.7-6.2-67.3-18.8c-17.7-12.5-30.7-28.9-39.2-49.1C4.2,275.9,0,253.3,0,228.3
	c0-33.1,7.2-64.9,21.5-95.4c14.3-30.5,33.1-57.4,56.3-80.5C101,29.2,126.2,11.8,153.4,0l76.2,56.3C209,64.4,190,74.6,172.7,87.1
	c-17.3,12.5-32.4,26.1-45.3,40.8c-12.9,14.7-22.6,29.8-29.3,45.2l5.5,3.3c3.7-2.9,8.5-5.1,14.3-6.6c5.9-1.5,13.6-2.2,23.2-2.2
	c13.2,0,26.7,3.3,40.3,9.9c13.6,6.6,25,16.5,34.2,29.8c9.2,13.2,13.8,30.2,13.8,50.7c0,23.5-5.2,43-15.5,58.5
	c-10.3,15.4-23.9,27.2-40.8,35.3C156.4,360,138.3,364,119.2,364z M389.6,364c-27.2,0-49.7-6.2-67.3-18.8
	c-17.7-12.5-30.7-28.9-39.2-49.1c-8.5-20.2-12.7-42.8-12.7-67.8c0-33.1,7.2-64.9,21.5-95.4c14.3-30.5,33.1-57.4,56.3-80.5
	c23.2-23.2,48.4-40.6,75.6-52.4L500,56.3c-20.6,8.1-39.6,18.4-56.8,30.9c-17.3,12.5-32.4,26.1-45.2,40.8
	c-12.9,14.7-22.6,29.8-29.3,45.2l5.5,3.3c3.7-2.9,8.5-5.1,14.3-6.6c5.9-1.5,13.6-2.2,23.2-2.2c13.2,0,26.7,3.3,40.3,9.9
	c13.6,6.6,25,16.5,34.2,29.8c9.2,13.2,13.8,30.2,13.8,50.7c0,23.5-5.2,43-15.4,58.5c-10.3,15.4-23.9,27.2-40.8,35.3
	C426.8,360,408.8,364,389.6,364z"/>
</svg>
