<?xml version="1.0" encoding="utf-8"?>
<!-- Generator: Adobe Illustrator 24.2.1, SVG Export Plug-In . SVG Version: 6.00 Build 0)  -->
<svg version="1.1" id="Layer_1" xmlns="http://www.w3.org/2000/svg" xmlns:xlink="http://www.w3.org/1999/xlink" x="0px" y="0px"
	 viewBox="0 0 237.6 176.2" enable-background="new 0 0 237.6 176.2" xml:space="preserve">
<path d="M106,12h6v91.4l-47.8,72.8H16.3l2.5-6h39.3L106,97.4V12z M231.6,12v85.4l-47.8,72.8h-39.3l-2.5,6h47.8l47.8-72.8V12H231.6z
	 M52.1,164.2L100,91.4V0H0v91.4h35l-2.5,6H12v6h17.9L4.3,164.2H52.1z M177.8,164.2l47.8-72.8V0h-100v91.4h35l-2.5,6h-20.5v6h17.9
	L130,164.2H177.8z"/>
</svg>
