<svg viewBox="0 0 160.7 55.5" xmlns="http://www.w3.org/2000/svg">
	<path fill="none" stroke="#f00" stroke-linecap="round" stroke-miterlimit="10" d="m51 5.3s3.7-4.6 2.4-4.6c-20.9.7-42 7-52.5 19.6-4.3 5.2 46.8-5.8 45.9 13.6-.5 11.6-14.8 18.7-41.6 19.6-3 .1 11.9-2.4 11.9-2.4"/>
	<path fill="none" stroke="#f00" stroke-linecap="round" stroke-miterlimit="10" d="m75.9 6.6s2.9-3.7 2.1-3c-27.8 26.4-34.5 44.3-23.8 48.9 23.4 10.1 53.9-20.6 49.5-19.5-5.3 1.3-16.8 17-10.8 20.5 10 5.8 35.7-2.5 46.3-2.9 1 0 1.1 3.7 1.1 3.7 15.4-3 21.2-10.2 16.5-15.6-13.2-15.2-38.5-16.3-52.5-15.3-17.5 1.2-69.6 5.9-69.6 7 0 .7 124.8-13.6 124.2-13.7-1.4-.1-5.7-1.7-5.7-1.7"/>
</svg>